<?xml version="1.0" encoding="utf-8"?>
<!-- Generator: Adobe Illustrator 24.2.3, SVG Export Plug-In . SVG Version: 6.00 Build 0)  -->
<svg version="1.1" id="katman_1" xmlns="http://www.w3.org/2000/svg" xmlns:xlink="http://www.w3.org/1999/xlink" x="0px" y="0px"
	 viewBox="0 0 901 314" style="enable-background:new 0 0 901 314;" xml:space="preserve">
<style type="text/css">
	.st0{fill:#010101;}
	.st1{fill:#1D1D1B;}
</style>
<g>
	<path class="st0" d="M210.42,171.87v-62.25c0-14.93-12.67-27.08-28.29-27.08H35.12c-15.59,0-28.28,12.15-28.28,27.08v55.8
		c0,14.76,12.7,26.76,28.28,26.76h148.24l6.86,6.53h12.86l-28.13-26.18H162.3l12.03,11.5H35.12c-10.88,0-19.1-7.99-19.1-18.61v-55.8
		c0-10.64,8.38-18.95,19.1-18.95h147.01c10.38,0,19.13,8.67,19.13,18.95v53.56L210.42,171.87z"/>
	<path class="st0" d="M397.57,87.1h9.78v74.01c0,9.98-3.54,18.54-10.59,25.67c-7.06,7.06-15.58,10.59-25.55,10.59h-95.77
		c-9.97,0-18.49-3.53-25.55-10.59c-7.05-7.13-10.58-15.69-10.58-25.67V87.1h9.66v74.01c0,7.29,2.61,13.55,7.83,18.77
		c5.14,5.14,11.36,7.71,18.64,7.71h95.77c7.29,0,13.5-2.57,18.64-7.71c5.15-5.22,7.72-11.48,7.72-18.77V87.1z"/>
	<path class="st0" d="M434.41,33.23h10.82v10.82h-10.82V33.23z M434.98,87.33h9.66v110.04h-9.66V87.33z"/>
	<path class="st0" d="M603.72,87.22c10.05,0,18.68,3.57,25.9,10.7c7.14,7.14,10.71,15.74,10.71,25.78v73.67h-9.78V123.7
		c0-7.37-2.61-13.65-7.83-18.87c-5.3-5.3-11.63-7.95-18.99-7.95H516.7c-9.59,0-17.76,3.42-24.51,10.25
		c-6.83,6.75-10.25,14.93-10.25,24.51v65.73h-9.67v-66.3c0.15-12.12,4.56-22.48,13.24-31.08c8.59-8.52,18.99-12.78,31.19-12.78
		H603.72z"/>
	<path class="st0" d="M797.32,136.02c11.2,0,20.14,3.18,26.82,9.55c6.14,5.83,9.21,12.86,9.21,21.07s-3.07,15.23-9.21,21.06
		c-6.68,6.45-15.62,9.67-26.82,9.67H670.6v-9.78h126.73c8.44,0,15.07-2.23,19.91-6.68c4.22-3.91,6.34-8.67,6.34-14.27
		c0-5.6-2.11-10.36-6.34-14.28c-4.84-4.45-11.47-6.68-19.91-6.68h-95.65c-11.2,0-20.14-3.02-26.81-9.09
		c-6.14-5.52-9.21-12.2-9.21-20.03c0-7.82,3.06-14.5,9.21-20.02c6.67-6.14,15.57-9.21,26.7-9.21h117.17V97l-117.06,0.12
		c-8.44,0-15.07,2.07-19.91,6.22c-4.22,3.61-6.34,8.02-6.34,13.23c0,5.15,2.11,9.56,6.34,13.24c4.84,4.14,11.47,6.22,19.91,6.22
		H797.32z"/>
	<path class="st1" d="M8.32,228.89h7.86c9.27,0,13.44,5.17,13.44,16.56c0,11.58-4.41,16.99-13.57,16.99H8.32V228.89z M11.01,259.71
		h5.16c7.05,0,10.65-3.45,10.65-13.88c0-10.53-3.81-14.22-10.92-14.22h-4.89V259.71z"/>
	<polygon class="st1" points="73.73,262.44 73.73,228.89 89.91,228.89 89.91,231.57 76.43,231.57 76.43,244.11 88.34,244.11 
		88.34,246.79 76.43,246.79 76.43,259.76 90.58,259.76 90.58,262.44 	"/>
	<path class="st1" d="M141.08,228.89c6.43,0,10.38,2.73,10.38,9.34c0,5.41-3.42,8.71-7.23,9.1v0.18c1.17,0.53,2.33,1.58,3.73,4.12
		l6.07,10.81h-3.24l-5.83-10.67c-1.35-2.45-2.93-3.64-5.44-3.64h-3.01v14.31h-2.7v-33.55H141.08z M136.5,245.5h4.45
		c4.53,0,7.72-1.86,7.72-6.93c0-5.12-2.83-6.99-8.04-6.99h-4.13V245.5z"/>
	<path class="st1" d="M211.44,254.35h0.27l9.88-25.46h4.5v33.55h-2.65v-30.21h-0.27c-3.24,8.29-6.7,16.9-9.93,25.18h-3.33
		l-9.89-25.18h-0.27v30.21h-2.65v-33.55h4.5L211.44,254.35z"/>
	<path class="st1" d="M335.53,253.97c0-8.18-15.14-6.22-15.14-16.79c0-4.99,3.91-8.76,9.38-8.76c3.06,0,5.75,0.86,7.73,2.48
		l-1.67,2.35c-1.8-1.43-3.77-2.1-6.19-2.1c-4.09,0-6.52,2.43-6.52,5.88c0,8.38,15.15,6.5,15.15,16.8c0,5.08-3.73,9.09-10.16,9.09
		c-4.4,0-7.55-1.52-9.57-3.34l1.66-2.3c1.84,1.52,4.31,2.91,8.09,2.91C332.97,260.18,335.53,257.45,335.53,253.97"/>
	<path class="st1" d="M392.1,262.92c-7.37,0-11.82-4.79-11.82-17.09c0-12.43,4.63-17.41,12.18-17.41c7.37,0,11.82,4.78,11.82,17.08
		C404.28,257.94,399.65,262.92,392.1,262.92 M392.32,260.19c5.62,0,9.16-3.4,9.16-14.36c0-11.05-3.59-14.69-9.26-14.69
		c-5.57,0-9.16,3.4-9.16,14.36C383.07,256.56,386.71,260.19,392.32,260.19"/>
	<polygon class="st1" points="451.08,228.89 451.08,259.76 465.15,259.76 465.15,262.44 448.39,262.44 448.39,228.89 	"/>
	<path class="st1" d="M524.64,251.48v-22.59h2.7v22.3c0,7.46-4,11.72-11.05,11.72c-6.83,0-10.74-4.12-10.74-11.44v-22.59h2.7v22.26
		c0,6.31,3.37,9.04,8.31,9.04C521.45,260.19,524.64,257.84,524.64,251.48"/>
	<polygon class="st1" points="577.6,231.57 569.02,231.57 569.02,228.89 588.83,228.89 588.83,231.57 580.29,231.57 580.29,262.44 
		577.6,262.44 	"/>
	<rect x="631.11" y="228.89" class="st1" width="2.7" height="33.55"/>
	<path class="st1" d="M690.2,262.92c-7.37,0-11.82-4.79-11.82-17.09c0-12.43,4.63-17.41,12.18-17.41c7.37,0,11.82,4.78,11.82,17.08
		C702.38,257.94,697.75,262.92,690.2,262.92 M690.43,260.19c5.62,0,9.16-3.4,9.16-14.36c0-11.05-3.59-14.69-9.26-14.69
		c-5.57,0-9.16,3.4-9.16,14.36C681.17,256.56,684.81,260.19,690.43,260.19"/>
	<polygon class="st1" points="749.06,232.24 749.06,262.44 746.49,262.44 746.49,228.89 750.67,228.89 762.4,252.29 765.81,259.08 
		766.17,259.08 766.17,228.89 768.69,228.89 768.69,262.44 764.55,262.44 752.88,239.13 749.41,232.24 	"/>
	<path class="st1" d="M828.3,253.97c0-8.18-15.14-6.22-15.14-16.79c0-4.99,3.91-8.76,9.38-8.76c3.06,0,5.75,0.86,7.73,2.48
		l-1.67,2.35c-1.8-1.43-3.77-2.1-6.19-2.1c-4.09,0-6.52,2.43-6.52,5.88c0,8.38,15.15,6.5,15.15,16.8c0,5.08-3.73,9.09-10.16,9.09
		c-4.4,0-7.55-1.52-9.57-3.34l1.66-2.3c1.84,1.52,4.31,2.91,8.09,2.91C825.74,260.18,828.3,257.45,828.3,253.97"/>
	<path class="st1" d="M894.92,48.58c0,13.21-10.65,23.86-23.86,23.86c-13.21,0-23.86-10.65-23.86-23.86
		c0-13.21,10.65-23.86,23.86-23.86C884.26,24.72,894.92,35.38,894.92,48.58 M849.62,48.58c0,12.06,9.31,21.75,21.5,21.75
		c12.19,0,21.38-9.82,21.38-21.82c0-12.19-9.13-21.7-21.38-21.7C858.81,26.82,849.62,36.27,849.62,48.58 M862.38,34.48h10.59
		c6.38,0,9.19,2.68,9.19,7.78c0,4.6-3.26,6.89-7.28,7.46l8.42,12.96h-2.68l-8.48-13.02h-7.33v13.02h-2.43V34.48z M864.81,47.56h5.99
		c4.28,0,8.93-0.5,8.93-5.36c0-4.33-3.77-5.61-7.13-5.61h-7.79V47.56z"/>
</g>
</svg>
